<svg width="114" height="115" viewBox="0 0 114 115" fill="none" xmlns="http://www.w3.org/2000/svg">
<path d="M6.48 107.162C5.34 107.162 4.326 106.898 3.438 106.37C2.55 105.83 1.86 105.08 1.368 104.12C0.876 103.16 0.63 102.068 0.63 100.844C0.63 99.524 0.912 98.402 1.476 97.478C2.04 96.542 2.784 95.84 3.708 95.372C4.632 94.904 5.628 94.67 6.696 94.67C7.404 94.67 8.076 94.748 8.712 94.904C9.36 95.06 10.014 95.294 10.674 95.606C10.542 96.29 10.476 97.22 10.476 98.396C10.224 98.516 9.828 98.576 9.288 98.576C9.264 97.46 9.042 96.686 8.622 96.254C8.214 95.81 7.614 95.588 6.822 95.588C5.538 95.588 4.584 96.044 3.96 96.956C3.336 97.868 3.024 99.002 3.024 100.358C3.024 101.414 3.192 102.362 3.528 103.202C3.864 104.042 4.356 104.702 5.004 105.182C5.652 105.662 6.426 105.902 7.326 105.902C7.854 105.902 8.394 105.818 8.946 105.65C9.498 105.482 10.026 105.242 10.53 104.93C10.614 105.002 10.692 105.104 10.764 105.236C10.836 105.368 10.884 105.488 10.908 105.596C10.248 106.124 9.57 106.52 8.874 106.784C8.178 107.036 7.38 107.162 6.48 107.162ZM17.9539 107.162C16.8979 107.162 15.9679 106.97 15.1639 106.586C14.3719 106.202 13.7539 105.662 13.3099 104.966C12.8779 104.27 12.6619 103.454 12.6619 102.518C12.6619 101.594 12.8839 100.784 13.3279 100.088C13.7719 99.38 14.3959 98.834 15.1999 98.45C16.0159 98.066 16.9579 97.874 18.0259 97.874C19.0699 97.874 19.9939 98.06 20.7979 98.432C21.6019 98.804 22.2199 99.338 22.6519 100.034C23.0959 100.718 23.3179 101.522 23.3179 102.446C23.3179 103.37 23.0959 104.192 22.6519 104.912C22.2079 105.62 21.5779 106.172 20.7619 106.568C19.9579 106.964 19.0219 107.162 17.9539 107.162ZM18.1879 106.19C19.0639 106.19 19.7479 105.878 20.2399 105.254C20.7439 104.63 20.9959 103.784 20.9959 102.716C20.9959 101.948 20.8579 101.27 20.5819 100.682C20.3059 100.094 19.9219 99.638 19.4299 99.314C18.9499 98.99 18.3919 98.828 17.7559 98.828C16.8919 98.828 16.2139 99.134 15.7219 99.746C15.2299 100.346 14.9839 101.174 14.9839 102.23C14.9839 102.998 15.1159 103.682 15.3799 104.282C15.6559 104.882 16.0339 105.35 16.5139 105.686C17.0059 106.022 17.5639 106.19 18.1879 106.19ZM28.8825 98.936V102.482H29.7465C30.3225 102.482 30.7245 102.41 30.9525 102.266C31.1805 102.122 31.3005 101.87 31.3125 101.51C31.5645 101.414 31.8945 101.366 32.3025 101.366C32.2785 101.942 32.2665 102.458 32.2665 102.914C32.2665 103.43 32.2785 103.952 32.3025 104.48C31.8825 104.48 31.5585 104.438 31.3305 104.354C31.2945 103.982 31.1625 103.736 30.9345 103.616C30.7185 103.484 30.3225 103.418 29.7465 103.418H28.8825V104.48C28.8825 105.044 28.9965 105.446 29.2245 105.686C29.4525 105.914 29.8485 106.04 30.4125 106.064C30.4845 106.28 30.5205 106.604 30.5205 107.036C29.8005 107.012 29.0025 107 28.1265 107C27.1305 107 26.2725 107.012 25.5525 107.036C25.5525 106.58 25.5825 106.256 25.6425 106.064C25.9425 106.04 26.1645 105.992 26.3085 105.92C26.4645 105.848 26.5725 105.716 26.6325 105.524C26.6925 105.32 26.7225 105.02 26.7225 104.624V100.34C26.7225 99.956 26.6925 99.674 26.6325 99.494C26.5725 99.302 26.4705 99.17 26.3265 99.098C26.1825 99.026 25.9605 98.972 25.6605 98.936C25.5885 98.66 25.5525 98.336 25.5525 97.964C26.6325 97.988 27.7365 98 28.8645 98C30.8925 98 32.3625 97.988 33.2745 97.964C33.3345 98.972 33.4425 99.746 33.5985 100.286C33.2865 100.43 32.9325 100.502 32.5365 100.502C32.4645 99.986 32.2545 99.596 31.9065 99.332C31.5705 99.068 30.9705 98.936 30.1065 98.936H28.8825ZM39.113 98.936V102.482H39.977C40.553 102.482 40.955 102.41 41.183 102.266C41.411 102.122 41.531 101.87 41.543 101.51C41.795 101.414 42.125 101.366 42.533 101.366C42.509 101.942 42.497 102.458 42.497 102.914C42.497 103.43 42.509 103.952 42.533 104.48C42.113 104.48 41.789 104.438 41.561 104.354C41.525 103.982 41.393 103.736 41.165 103.616C40.949 103.484 40.553 103.418 39.977 103.418H39.113V104.48C39.113 105.044 39.227 105.446 39.455 105.686C39.683 105.914 40.079 106.04 40.643 106.064C40.715 106.28 40.751 106.604 40.751 107.036C40.031 107.012 39.233 107 38.357 107C37.361 107 36.503 107.012 35.783 107.036C35.783 106.58 35.813 106.256 35.873 106.064C36.173 106.04 36.395 105.992 36.539 105.92C36.695 105.848 36.803 105.716 36.863 105.524C36.923 105.32 36.953 105.02 36.953 104.624V100.34C36.953 99.956 36.923 99.674 36.863 99.494C36.803 99.302 36.701 99.17 36.557 99.098C36.413 99.026 36.191 98.972 35.891 98.936C35.819 98.66 35.783 98.336 35.783 97.964C36.863 97.988 37.967 98 39.095 98C41.123 98 42.593 97.988 43.505 97.964C43.565 98.972 43.673 99.746 43.829 100.286C43.517 100.43 43.163 100.502 42.767 100.502C42.695 99.986 42.485 99.596 42.137 99.332C41.801 99.068 41.201 98.936 40.337 98.936H39.113ZM53.5375 104.282C54.0295 104.354 54.3835 104.498 54.5995 104.714C54.3835 105.278 54.2215 106.046 54.1135 107.018L50.4235 107C48.5155 107 47.0455 107.012 46.0135 107.036C46.0135 106.58 46.0495 106.256 46.1215 106.064C46.4215 106.04 46.6435 105.992 46.7875 105.92C46.9315 105.836 47.0335 105.698 47.0935 105.506C47.1535 105.314 47.1835 105.014 47.1835 104.606V100.34C47.1835 99.956 47.1535 99.674 47.0935 99.494C47.0335 99.302 46.9255 99.17 46.7695 99.098C46.6255 99.026 46.4035 98.972 46.1035 98.936C46.0435 98.708 46.0135 98.384 46.0135 97.964C47.0215 97.988 48.1255 98 49.3255 98C51.3535 98 52.8115 97.988 53.6995 97.964C53.7835 99.02 53.8975 99.788 54.0415 100.268C53.7055 100.424 53.3515 100.502 52.9795 100.502C52.9075 99.986 52.6975 99.596 52.3495 99.332C52.0135 99.068 51.4135 98.936 50.5495 98.936H49.3435V102.086H50.0455C50.5975 102.086 50.9755 102.02 51.1795 101.888C51.3955 101.744 51.5035 101.492 51.5035 101.132C51.7915 101.036 52.1275 100.988 52.5115 100.988C52.4755 101.42 52.4575 101.93 52.4575 102.518C52.4575 103.166 52.4755 103.688 52.5115 104.084C52.0915 104.084 51.7675 104.042 51.5395 103.958C51.5155 103.598 51.3955 103.352 51.1795 103.22C50.9755 103.088 50.5975 103.022 50.0455 103.022H49.3435V104.552C49.3435 104.96 49.3795 105.272 49.4515 105.488C49.5235 105.692 49.6555 105.842 49.8475 105.938C50.0395 106.022 50.3215 106.064 50.6935 106.064H50.8555C51.4435 106.064 51.9055 106.004 52.2415 105.884C52.5775 105.764 52.8355 105.584 53.0155 105.344C53.2075 105.092 53.3815 104.738 53.5375 104.282ZM64.3305 104.282C64.8225 104.354 65.1765 104.498 65.3925 104.714C65.1765 105.278 65.0145 106.046 64.9065 107.018L61.2165 107C59.3085 107 57.8385 107.012 56.8065 107.036C56.8065 106.58 56.8425 106.256 56.9145 106.064C57.2145 106.04 57.4365 105.992 57.5805 105.92C57.7245 105.836 57.8265 105.698 57.8865 105.506C57.9465 105.314 57.9765 105.014 57.9765 104.606V100.34C57.9765 99.956 57.9465 99.674 57.8865 99.494C57.8265 99.302 57.7185 99.17 57.5625 99.098C57.4185 99.026 57.1965 98.972 56.8965 98.936C56.8365 98.708 56.8065 98.384 56.8065 97.964C57.8145 97.988 58.9185 98 60.1185 98C62.1465 98 63.6045 97.988 64.4925 97.964C64.5765 99.02 64.6905 99.788 64.8345 100.268C64.4985 100.424 64.1445 100.502 63.7725 100.502C63.7005 99.986 63.4905 99.596 63.1425 99.332C62.8065 99.068 62.2065 98.936 61.3425 98.936H60.1365V102.086H60.8385C61.3905 102.086 61.7685 102.02 61.9725 101.888C62.1885 101.744 62.2965 101.492 62.2965 101.132C62.5845 101.036 62.9205 100.988 63.3045 100.988C63.2685 101.42 63.2505 101.93 63.2505 102.518C63.2505 103.166 63.2685 103.688 63.3045 104.084C62.8845 104.084 62.5605 104.042 62.3325 103.958C62.3085 103.598 62.1885 103.352 61.9725 103.22C61.7685 103.088 61.3905 103.022 60.8385 103.022H60.1365V104.552C60.1365 104.96 60.1725 105.272 60.2445 105.488C60.3165 105.692 60.4485 105.842 60.6405 105.938C60.8325 106.022 61.1145 106.064 61.4865 106.064H61.6485C62.2365 106.064 62.6985 106.004 63.0345 105.884C63.3705 105.764 63.6285 105.584 63.8085 105.344C64.0005 105.092 64.1745 104.738 64.3305 104.282ZM71.2534 107.162C70.5214 107.162 69.8554 107.072 69.2554 106.892C68.6554 106.7 68.0314 106.418 67.3834 106.046C67.5034 105.362 67.5634 104.462 67.5634 103.346C67.9114 103.25 68.3494 103.202 68.8774 103.202C68.9374 104.222 69.1594 104.966 69.5434 105.434C69.9274 105.902 70.5514 106.136 71.4154 106.136C72.1354 106.136 72.6694 105.98 73.0174 105.668C73.3774 105.344 73.5574 104.936 73.5574 104.444C73.5574 104.048 73.4434 103.706 73.2154 103.418C72.9994 103.13 72.7234 102.89 72.3874 102.698C72.0514 102.494 71.6014 102.26 71.0374 101.996C70.3054 101.66 69.7114 101.348 69.2554 101.06C68.7994 100.76 68.4094 100.364 68.0854 99.872C67.7734 99.38 67.6174 98.768 67.6174 98.036C67.6174 96.968 67.9654 96.14 68.6614 95.552C69.3574 94.964 70.2874 94.67 71.4514 94.67C72.0634 94.67 72.6634 94.748 73.2514 94.904C73.8394 95.048 74.3074 95.234 74.6554 95.462C74.6554 96.614 74.6914 97.436 74.7634 97.928C74.4634 98.084 74.0254 98.162 73.4494 98.162C73.2814 97.202 73.0354 96.542 72.7114 96.182C72.3874 95.822 71.9374 95.642 71.3614 95.642C70.7854 95.642 70.3294 95.78 69.9934 96.056C69.6694 96.332 69.5074 96.722 69.5074 97.226C69.5074 97.646 69.6214 98.006 69.8494 98.306C70.0894 98.606 70.3834 98.858 70.7314 99.062C71.0794 99.266 71.5534 99.512 72.1534 99.8C72.8854 100.148 73.4794 100.466 73.9354 100.754C74.3914 101.042 74.7754 101.426 75.0874 101.906C75.4114 102.374 75.5734 102.95 75.5734 103.634C75.5734 104.306 75.4114 104.906 75.0874 105.434C74.7754 105.962 74.2954 106.382 73.6474 106.694C72.9994 107.006 72.2014 107.162 71.2534 107.162ZM87.1958 104.66C87.1958 105.056 87.2258 105.356 87.2858 105.56C87.3458 105.752 87.4478 105.884 87.5918 105.956C87.7478 106.028 87.9758 106.076 88.2758 106.1C88.3358 106.28 88.3658 106.592 88.3658 107.036C87.6218 107.012 86.9018 107 86.2058 107C85.5098 107 84.7538 107.012 83.9378 107.036C83.9378 106.616 83.9798 106.304 84.0638 106.1C84.3398 106.076 84.5438 106.028 84.6758 105.956C84.8078 105.884 84.8978 105.752 84.9458 105.56C85.0058 105.356 85.0358 105.056 85.0358 104.66V102.788C83.1398 102.788 81.7658 102.83 80.9138 102.914V104.66C80.9138 105.056 80.9438 105.356 81.0038 105.56C81.0638 105.752 81.1598 105.884 81.2918 105.956C81.4358 106.028 81.6458 106.076 81.9218 106.1C81.9818 106.34 82.0118 106.652 82.0118 107.036C81.2678 107.012 80.5718 107 79.9238 107C79.1798 107 78.3998 107.012 77.5838 107.036C77.5838 106.628 77.6198 106.316 77.6918 106.1C77.9918 106.076 78.2138 106.028 78.3578 105.956C78.5018 105.884 78.6038 105.752 78.6638 105.56C78.7238 105.356 78.7538 105.056 78.7538 104.66V100.304C78.7538 99.92 78.7238 99.638 78.6638 99.458C78.6038 99.266 78.5018 99.134 78.3578 99.062C78.2138 98.99 77.9918 98.936 77.6918 98.9C77.6198 98.648 77.5838 98.336 77.5838 97.964C78.3278 97.988 79.0898 98 79.8698 98C80.4818 98 81.1958 97.988 82.0118 97.964C82.0118 98.384 81.9818 98.696 81.9218 98.9C81.6338 98.924 81.4178 98.978 81.2738 99.062C81.1418 99.146 81.0458 99.284 80.9858 99.476C80.9378 99.668 80.9138 99.956 80.9138 100.34V101.888H85.0358V100.34C85.0358 99.956 85.0058 99.668 84.9458 99.476C84.8978 99.284 84.8018 99.152 84.6578 99.08C84.5258 98.996 84.3158 98.936 84.0278 98.9C83.9678 98.624 83.9378 98.312 83.9378 97.964C84.6818 97.988 85.4198 98 86.1518 98C86.7878 98 87.5258 97.988 88.3658 97.964C88.3658 98.384 88.3298 98.696 88.2578 98.9C87.9578 98.924 87.7358 98.978 87.5918 99.062C87.4478 99.134 87.3458 99.266 87.2858 99.458C87.2258 99.638 87.1958 99.92 87.1958 100.304V104.66ZM95.8953 107.162C94.8393 107.162 93.9093 106.97 93.1053 106.586C92.3133 106.202 91.6953 105.662 91.2513 104.966C90.8193 104.27 90.6033 103.454 90.6033 102.518C90.6033 101.594 90.8253 100.784 91.2693 100.088C91.7133 99.38 92.3373 98.834 93.1413 98.45C93.9573 98.066 94.8993 97.874 95.9673 97.874C97.0113 97.874 97.9353 98.06 98.7393 98.432C99.5433 98.804 100.161 99.338 100.593 100.034C101.037 100.718 101.259 101.522 101.259 102.446C101.259 103.37 101.037 104.192 100.593 104.912C100.149 105.62 99.5193 106.172 98.7033 106.568C97.8993 106.964 96.9633 107.162 95.8953 107.162ZM96.1293 106.19C97.0053 106.19 97.6893 105.878 98.1813 105.254C98.6853 104.63 98.9373 103.784 98.9373 102.716C98.9373 101.948 98.7993 101.27 98.5233 100.682C98.2473 100.094 97.8633 99.638 97.3713 99.314C96.8913 98.99 96.3333 98.828 95.6973 98.828C94.8333 98.828 94.1553 99.134 93.6633 99.746C93.1713 100.346 92.9253 101.174 92.9253 102.23C92.9253 102.998 93.0573 103.682 93.3213 104.282C93.5973 104.882 93.9753 105.35 94.4553 105.686C94.9473 106.022 95.5053 106.19 96.1293 106.19ZM107.976 103.058C108.528 103.058 108.978 102.902 109.326 102.59C109.686 102.278 109.866 101.774 109.866 101.078C109.866 100.43 109.674 99.914 109.29 99.53C108.906 99.146 108.336 98.954 107.58 98.954C107.328 98.954 107.076 98.984 106.824 99.044V104.48C106.824 105.044 106.938 105.446 107.166 105.686C107.394 105.914 107.79 106.04 108.354 106.064C108.426 106.28 108.462 106.604 108.462 107.036C107.742 107.012 106.944 107 106.068 107C105.072 107 104.214 107.012 103.494 107.036C103.494 106.58 103.524 106.256 103.584 106.064C103.884 106.04 104.106 105.992 104.25 105.92C104.406 105.848 104.514 105.716 104.574 105.524C104.634 105.32 104.664 105.02 104.664 104.624V100.34C104.664 99.956 104.634 99.674 104.574 99.494C104.514 99.302 104.412 99.17 104.268 99.098C104.124 99.026 103.902 98.972 103.602 98.936C103.53 98.66 103.494 98.336 103.494 97.964C104.694 97.988 105.492 98 105.888 98C106.344 98 106.716 97.994 107.004 97.982L108.462 97.964C109.698 97.964 110.598 98.228 111.162 98.756C111.738 99.284 112.026 99.974 112.026 100.826C112.026 101.426 111.882 101.972 111.594 102.464C111.306 102.956 110.886 103.346 110.334 103.634C109.794 103.91 109.14 104.048 108.372 104.048C107.904 104.048 107.538 104.006 107.274 103.922C107.25 103.826 107.238 103.694 107.238 103.526C107.238 103.31 107.268 103.142 107.328 103.022C107.484 103.046 107.7 103.058 107.976 103.058Z" fill="#C99E71"/>
<path d="M35.3354 34.095H79.0683L80.2501 47.0966L78.4772 61.2803L69.0215 70.736L67.2486 72.2796H94.4339V75.4639L75.5222 79.0098V83.7377H39.4722V79.0098L20.9153 75.4639V72.509H45.1457L44.7912 70.736L35.3354 62.4622V34.095Z" fill="#C99E71"/>
<path d="M39.472 81.374H75.5221" stroke="#452400" stroke-opacity="0.24" stroke-width="3" stroke-linecap="round"/>
<path d="M35.3352 55.9616L38.8811 60.6895L38.2901 61.8714C41.836 58.9165 51.8828 60.0985 49.5188 70.1452C59.5656 70.7362 70.7943 73.6911 79.0681 55.3706" stroke="#452400" stroke-opacity="0.24" stroke-width="3" stroke-linecap="round"/>
<path d="M82.614 72.509H95.0247V74.873L76.1132 79.0099M76.1132 79.0099H38.8811M76.1132 79.0099V83.7377H38.8811V79.0099M38.8811 79.0099L19.9696 74.873V72.509H78.4771" stroke="#220000" stroke-width="2" stroke-linecap="round"/>
<path d="M80.841 37.8886V41.9055C80.841 42.4784 81.3208 42.9319 81.8936 42.944C85.7461 43.0251 91.431 44.6042 89.7058 50.6424C88.0816 56.327 83.7257 56.0252 80.906 54.8284C80.2734 54.5599 79.5035 54.8879 79.3545 55.5589L78.617 58.8774C78.5318 59.2608 78.6765 59.6631 79.0064 59.8763C84.5335 63.4475 91.4085 59.3229 94.3324 56.6458C94.4013 56.5828 94.4573 56.5138 94.5035 56.4327C95.6786 54.3679 97.2149 48.9856 94.4336 42.9595C91.8121 37.2795 85.2874 36.5458 81.6694 36.9336C81.187 36.9853 80.841 37.4034 80.841 37.8886Z" fill="#C99E71"/>
<path d="M68.4303 34.095H35.9261C35.1382 33.898 34.1532 34.095 34.1532 39.4137M34.1532 39.4137C34.1532 42.3686 34.1532 51.8244 34.7442 55.3703C36.5171 64.2351 37.1081 71.9179 54.8377 71.9179C70.4683 71.9179 72.5672 68.372 72.5672 68.372C74.0106 67.1992 76.0405 64.4981 77.681 60.0982M34.1532 39.4137H80.3918M80.25 37.0498C80.3918 34.095 80.4589 34.0952 71.9762 34.095M80.25 37.0498C80.3104 37.8541 80.3573 38.642 80.3918 39.4137M80.25 37.0498C83.7959 36.4588 86.8217 36.5547 90.2968 38.8227C94.3447 41.4646 96.2066 44.7326 95.6156 51.2334C94.7203 57.5006 90.9729 60.4653 83.7959 61.2801C81.4981 61.541 80.25 61.2801 77.681 60.0982M80.3918 39.4137C80.6523 45.2482 80.1956 50.1534 79.3598 54.1883M77.681 60.0982C78.3185 58.3882 78.8972 56.4215 79.3598 54.1883M80.4589 43.5506C82.2318 42.5656 85.9778 42.7775 88.5238 45.3236C90.2968 47.0965 89.9028 51.6274 89.7058 52.4154C88.3243 54.7793 84.3211 57.9706 79.3598 54.1883" stroke="#220000" stroke-width="2" stroke-linecap="round"/>
<path d="M51.8828 13.4106C54.4437 15.7746 58.0291 21.5662 51.8828 25.8213" stroke="white" stroke-opacity="0.51" stroke-width="2" stroke-linecap="round"/>
<path d="M70.7943 14.0017C73.3552 16.3656 76.9406 22.1573 70.7943 26.4124" stroke="white" stroke-opacity="0.51" stroke-width="2" stroke-linecap="round"/>
<path d="M60.7476 26.4124C63.6789 24.2138 67.7008 18.9483 62.1641 14.4189C61.5677 13.931 61.5935 12.9427 62.2065 12.4759C65.1667 10.2218 67.6502 5.87245 60.7476 1" stroke="white" stroke-opacity="0.51" stroke-width="2" stroke-linecap="round"/>
<path d="M49.2295 65.6279C49.7027 68.8123 46.2048 71.9706 41.4165 72.6822C35.9262 72.6822 32.2201 73.0934 31.7468 69.909C31.2736 66.7246 34.9146 61.8621 39.7028 61.1505C44.491 60.4389 47.7459 63.0532 49.2295 65.6279Z" fill="#A85000"/>
<path d="M34.1532 71.9182C37.7334 72.2815 45.9369 70.9879 47.7459 68.3723" stroke="#593310" stroke-width="2" stroke-linecap="round"/>
<path d="M38.2901 68.3723L48.6266 66.8051M48.6266 66.8051C48.5 65.4186 47.2912 63.9173 44.2 62.4626C36.1626 58.6803 32.9713 67.1904 31.7893 71.9182H37.1082H44.2C46.2609 70.9484 48.8291 69.0237 48.6266 66.8051Z" stroke="#220000" stroke-width="2" stroke-linecap="round"/>
<ellipse cx="30.0701" cy="65.5079" rx="7.33626" ry="9.56551" transform="rotate(29.1943 30.0701 65.5079)" fill="#A85000"/>
<path d="M26.4703 73.1002C28.0463 73.1002 34.7441 70.0271 37.1081 64.8264" stroke="#392717" stroke-opacity="0.71" stroke-width="2" stroke-linecap="round"/>
<path d="M27.6524 58.9161C31.7893 56.5524 33.2345 57.1423 35.3352 57.7345M24.6975 61.8711C18.7876 73.6908 31.7893 79.6006 36.5172 66.5989C38.5401 61.036 37.1081 58.9162 35.3352 57.7345M29.4253 66.599L35.3352 57.7345" stroke="#220000" stroke-width="2" stroke-linecap="round"/>
</svg>
